<?xml version="1.0" standalone="no"?>
<!DOCTYPE svg PUBLIC "-//W3C//DTD SVG 20010904//EN"
 "http://www.w3.org/TR/2001/REC-SVG-20010904/DTD/svg10.dtd">
<svg version="1.0" xmlns="http://www.w3.org/2000/svg"
 width="640.000000pt" height="1280.000000pt" viewBox="0 0 640.000000 1280.000000"
 preserveAspectRatio="xMidYMid meet">
<metadata>
Created by potrace 1.15, written by Peter Selinger 2001-2017
</metadata>
<g transform="translate(0.000000,1280.000000) scale(0.100000,-0.100000)"
fill="#fedeb2" stroke="none">
<path d="M3075 12786 c-28 -7 -77 -27 -110 -46 l-59 -34 24 -15 c53 -35 93
-77 118 -125 27 -50 27 -54 25 -221 -1 -93 -8 -213 -15 -267 -13 -89 -12 -98
4 -118 24 -30 23 -47 -6 -65 -19 -13 -25 -27 -28 -73 -5 -50 -2 -61 19 -86 17
-21 23 -37 20 -55 -23 -113 -36 -246 -42 -421 -3 -113 -13 -270 -22 -350 -9
-80 -16 -220 -17 -312 0 -93 0 -168 0 -168 -1 0 -111 -5 -246 -10 -258 -10
-387 -21 -560 -46 -211 -32 -481 -98 -463 -114 4 -4 79 -39 167 -79 l158 -71
40 34 c90 78 268 141 463 165 50 6 174 14 276 18 l186 6 6 -62 c7 -62 -11
-132 -66 -264 -15 -35 -16 -154 -7 -1325 15 -2053 29 -4075 40 -5937 6 -952
15 -1812 20 -1912 11 -195 35 -348 75 -483 30 -102 118 -340 125 -340 9 0 108
276 135 375 37 132 54 254 65 453 5 97 14 955 20 1907 11 1861 25 3881 40
5937 9 1171 8 1290 -7 1325 -55 132 -73 202 -66 264 l6 62 186 -6 c102 -4 227
-12 276 -18 195 -24 373 -87 461 -163 l42 -36 158 71 c88 40 163 75 167 79 18
16 -252 82 -463 114 -173 25 -302 36 -560 46 -135 5 -245 10 -246 10 -1 0 -1
69 0 153 0 83 -7 222 -16 307 -9 85 -20 236 -23 335 -6 171 -25 355 -44 438
-8 34 -6 42 19 70 25 29 27 38 22 88 -4 48 -8 59 -28 68 -28 13 -32 46 -7 73
15 16 15 28 4 116 -7 53 -15 162 -18 242 -8 209 16 279 129 360 l36 26 -53 32
c-97 58 -240 77 -360 48z"/>
</g>
</svg>
